# xmcd
#
# Track frame offsets: 
#        150
#        17015
#        44867
#        62885
#        82690
#        108407
#        125602
#        144440
#        162302
#        177970
#
# Disc length: 2683 seconds
#
# Revision: 0
# Processed by: cddbd v1.5.2PL0 Copyright (c) Steve Scherf et al.
# Submitted via: ExactAudioCopy v1.0b3
#
DISCID=850a790a
DTITLE=Phuong Mai - Ly Cai Mon
DYEAR=1994
DGENRE=
TTITLE0=Phuong buon
TTITLE1=Can nha ngoai o
TTITLE2=Ly cai mon
TTITLE3=Diep khuc thuong dau
TTITLE4=Nua dem thuong nho
TTITLE5=Tieng dan trong gio dong
TTITLE6=Bon nga duong que huong
TTITLE7=E ngai
TTITLE8=Nguoi ngoai pho
TTITLE9=Mau chay ve tim
EXTD=
EXTT0=
EXTT1=
EXTT2=
EXTT3=
EXTT4=
EXTT5=
EXTT6=
EXTT7=
EXTT8=
EXTT9=
PLAYORDER=
